<svg width="138" height="100" viewBox="0 0 138 100" fill="none" xmlns="http://www.w3.org/2000/svg">
<path fill-rule="evenodd" clip-rule="evenodd" d="M93.4631 64.6322C95.0996 66.5281 95.3115 66.0569 96.9407 68.9229C98.0438 70.8597 98.4456 72.3874 99.3735 74.471C99.6949 74.799 105.423 75.3594 103.932 81.8747C112.21 80.4325 120.933 78.9399 129.028 77.1464C134.01 76.0425 136.713 76.1484 137.758 71.0891C138.598 66.9789 137.108 61.9401 135.457 58.8994C130.292 49.3741 123.819 53.9862 115.6 56.9823C111.961 58.3113 108.411 59.5788 104.699 60.8332L96.3124 63.5729C95.8667 63.7059 95.4137 63.86 94.9169 64.0069L93.6239 64.5227C93.5873 64.5431 93.5143 64.5906 93.4631 64.6322ZM101.974 31.1958V54.3522L74.0078 66.5383L30.246 54.3522V29.6382C32.4889 30.2906 34.4614 30.8714 35.3381 31.1205C40.5252 32.5861 45.5151 34.0348 50.6803 35.4762C55.7724 36.898 60.9304 38.3766 66.0298 39.7984C68.2435 40.4164 71.6261 41.6124 73.6717 42.0259C74.9794 42.2889 79.3483 40.225 80.8679 39.6238L101.974 31.1958ZM0 18.7942L18.6371 24.069C18.6517 26.1292 18.9659 31.3083 18.5567 32.955C18.5348 33.0368 18.4544 33.0646 18.4179 33.0916L18.1403 33.3481C15.5175 35.7466 18.396 36.2865 18.3521 39.0298C18.3156 41.2055 17.7166 40.3383 17.2782 42.3642C17.0079 43.6215 16.796 44.9979 16.5695 46.2859C13.6691 62.8284 11.7404 62.9446 18.9001 63.06C26.3739 63.1798 25.2707 62.1753 24.4525 57.55C24.1383 55.763 23.8242 54.079 23.4954 52.3059C22.8964 49.0775 22.3776 45.1382 21.6178 42.0361C21.2745 40.6385 19.6307 38.9816 21.0845 37.0857C21.6763 36.3135 22.1219 36.0439 21.7858 34.6741C21.5301 33.6315 21.0699 33.5636 20.3101 32.9857L20.3028 24.6534C21.8735 24.8039 32.8907 28.1076 35.3381 28.8009C40.5252 30.2665 45.5151 31.7189 50.6803 33.1567C55.7724 34.5784 60.9304 36.0571 66.0298 37.4817C68.2435 38.1005 71.6261 39.2965 73.6717 39.7063C74.9794 39.9722 79.3483 37.9091 80.8679 37.3042L122.876 20.5337C127.479 18.6985 132.491 16.9085 136.918 14.8994C136.019 14.3902 68.8134 0.916138 66.081 0.383545C62.2235 -0.371872 62.6838 -0.0197372 57.5332 1.51448C50.7826 3.52285 1.06665 18.1009 0 18.7942ZM103.691 92.2124L104.042 90.836C105.189 91.0953 104.999 91.0369 105.342 90.771C103.253 88.2015 102.727 83.9145 101.361 84.6414C100.952 84.8606 100.542 84.3513 101.375 86.4868C101.952 87.9655 102.939 91.427 103.691 92.2124ZM98.7087 99.2912C99.7899 98.7583 99.4173 98.6865 100.206 97.9349L101.719 98.625L100.506 85.0315L99.0374 85.2536C98.5187 87.0399 98.7598 96.6504 98.7087 99.2912ZM97.7443 75.8481C95.6694 76.415 94.1718 78.3489 94.8585 81.1025C95.3553 83.0904 97.6201 84.6655 100.126 83.9926C105.284 82.6053 103.348 74.3102 97.7443 75.8481ZM32.54 87.194C34.0742 86.8587 35.6742 86.4627 37.1865 86.0492C38.8815 85.5846 39.9627 82.2706 42.9142 84.119C44.7188 85.25 45.8366 87.9933 45.8877 90.2654C45.99 95.0686 41.6796 95.113 40.5399 90.8871C38.9253 84.8737 45.3544 86.7462 44.0832 90.4875C42.1179 89.9235 44.1636 88.2768 41.6285 88.1504C40.2915 92.7969 45.5151 94.9287 44.8357 89.4932C44.3316 85.4136 40.6933 83.0056 39.2541 86.2918C36.4998 92.5879 44.3754 102.523 47.8822 95.9398C49.3214 93.241 49.0292 89.1549 48.1525 86.131C44.4558 73.4087 32.7884 73.3539 32.54 87.194ZM40.233 75.5062C41.0878 75.9782 43.7471 76.4392 45.4494 78.7281C49.5991 84.2929 51.8492 92.1306 47.7215 98.0921C51.4693 97.4053 56.1524 95.762 59.7906 94.6379C63.6408 93.4493 67.5421 92.2672 71.3996 90.9857C75.6662 89.5713 91.8047 84.3616 95.2165 83.9656C91.7097 77.9493 95.1288 78.1268 94.6321 75.9402C93.9234 72.879 90.9499 68.6526 87.9107 67.0782C86.0697 66.1212 85.865 66.4119 83.8486 66.9138C76.4698 68.752 65.1458 70.5426 57.5186 71.9052C54.5451 72.4348 41.9937 74.5769 40.233 75.5062Z" fill="#B970AB"/>
</svg>
