<svg width="96" height="88" viewBox="0 0 96 88" fill="none" xmlns="http://www.w3.org/2000/svg">
<path d="M6.45711 77.6434L5.28837 77.9059V8.83478C3.55119 9.29053 1.78039 9.82298 0 10.4218V85.2732C7.82718 82.3779 15.7513 81.136 23.5755 81.5814C29.2858 81.9074 35.0488 83.139 40.786 85.257C29.3357 77.6596 17.8173 75.1006 6.45711 77.6434Z" fill="#B970AB"/>
<path d="M90.7124 8.83478V77.9059L89.5442 77.6434C78.1828 75.1006 66.6645 77.6596 55.2141 85.257C60.9522 83.139 66.7143 81.9074 72.4245 81.5814C80.2492 81.1345 88.174 82.3764 96 85.2732V10.4218C94.2198 9.82298 92.4484 9.29053 90.7124 8.83478Z" fill="#B970AB"/>
<path d="M88.7942 75.5274V0.594612C74.0832 -1.6403 61.0394 2.41241 48.9592 12.9651V87.4454C55.4747 82.2675 62.073 78.6365 68.5963 76.6433C75.295 74.5977 82.0833 74.2237 88.7942 75.5274Z" fill="#B970AB"/>
<path d="M7.20581 0.594612V75.5274C9.8166 75.021 12.4386 74.767 15.0628 74.767C19.1854 74.767 23.3109 75.3935 27.4038 76.6433C33.9271 78.6365 40.5261 82.2675 47.0407 87.4454V12.9651C34.9606 2.41241 21.9169 -1.6403 7.20581 0.594612Z" fill="#B970AB"/>
</svg>
