<svg width="98" height="99" viewBox="0 0 98 99" fill="none" xmlns="http://www.w3.org/2000/svg">
<path d="M40.0961 0.095993C29.4268 0.498253 18.3935 1.36023 9.83116 2.45206C2.95449 3.3332 1.92012 3.58221 0.981522 4.59743C-0.704123 6.398 -0.148626 9.15633 2.11167 10.3248C2.9928 10.7654 3.52914 10.7654 6.1917 10.3056C7.341 10.1141 8.29875 9.96085 8.31791 9.98C8.33706 9.99915 8.2796 10.7845 8.20298 11.7423C7.49424 19.3851 6.86212 30.7058 6.86212 35.6861C6.86212 42.6011 7.49424 54.4963 8.1072 59.151C8.6627 63.4992 10.5207 67.0237 13.9495 70.3376C16.5737 72.866 19.4853 74.5708 22.5884 75.4137C25.0594 76.0841 32.7981 76.812 40.0961 77.061C41.8967 77.1185 43.8122 77.2142 44.3677 77.2717L45.3638 77.3675V80.6047V83.8419L38.717 87.8261C32.7981 91.3698 31.9935 91.887 31.6296 92.5766C30.6144 94.3772 31.3423 96.7524 33.2003 97.6527C34.5603 98.3231 35.5564 98.1315 37.7401 96.8482C38.717 96.2735 41.6477 94.5304 44.2719 92.9597L49.0032 90.1439L55.3244 93.9174C58.8106 95.9862 61.9137 97.7676 62.2394 97.8825C63.676 98.3806 65.7064 97.5377 66.4343 96.1203C66.9707 95.0859 66.9515 93.5726 66.3769 92.5766C65.898 91.7146 65.4383 91.4273 57.4315 86.6768L52.6427 83.8227V80.6047V77.3866L53.2365 77.2717C53.5621 77.2142 54.6348 77.1568 55.5926 77.1568C59.8642 77.1568 71.6254 76.2373 74.2688 75.701C81.2987 74.2644 87.7156 68.2114 89.5162 61.3538C90.2441 58.4997 91.1443 44.4591 91.1443 35.6861C91.1443 30.7441 90.5314 19.864 89.8226 11.9338C89.7269 10.9761 89.7269 10.1524 89.7843 10.0949C89.8418 10.0375 90.9336 10.1524 92.217 10.3631C94.9179 10.8037 95.6649 10.727 96.6418 9.86507C97.9635 8.71577 98.3466 7.08759 97.6762 5.61265C96.91 3.96532 96.1438 3.60136 91.9105 2.9501C83.942 1.72417 71.5104 0.651489 59.8258 0.153458C55.765 -0.0189362 43.8122 -0.0572433 40.0961 0.095993ZM64.1357 7.60477C68.7712 7.91125 77.6975 8.58168 80.1302 8.84985L82.2372 9.06055L82.3713 10.229C82.5437 11.8955 83.444 24.5187 83.6739 28.6945C84.0187 35.0923 83.8846 42.0072 83.1758 52.351C82.8311 57.6186 82.6203 59.2659 82.1223 60.6068C80.9539 63.7099 77.9082 66.6981 74.5178 68.0773C72.5448 68.8818 65.9938 69.4756 54.8264 69.897C50.1908 70.0694 47.49 70.0694 43.0269 69.897C32.3575 69.4947 25.5958 68.8818 23.6611 68.1539C19.8684 66.7364 16.478 63.1544 15.5777 59.6107C15.2712 58.3657 14.8689 53.9408 14.4858 47.658C14.1027 41.0686 14.1794 29.4798 14.6774 22.6606C15.3287 13.6961 15.7118 9.27126 15.8458 9.13718C16.0949 8.869 30.0397 7.79633 37.606 7.43238C42.1457 7.22167 59.9025 7.3366 64.1357 7.60477Z" fill="#B970AB"/>
<path d="M32.664 24.6911C31.8595 25.1125 31.2465 25.9745 31.0741 26.9131C30.9783 27.4494 30.8443 27.5452 29.6375 27.9283C27.7411 28.5413 26.113 29.5565 24.5806 31.0889C23.0482 32.6213 22.1862 33.9813 21.4583 36.0117C20.9986 37.2951 20.9411 37.6591 20.9411 40.1875C20.9411 42.716 20.9986 43.08 21.4583 44.3633C22.1862 46.3938 23.0482 47.7538 24.5806 49.2862C26.113 50.8186 27.473 51.6806 29.5034 52.4085C30.7868 52.8682 31.1507 52.9257 33.6792 52.9257C36.2077 52.9257 36.5716 52.8682 37.855 52.4085C39.9046 51.6614 41.2646 50.7994 42.7779 49.2862C44.3103 47.7346 45.4021 45.9915 45.9576 44.191C46.3215 42.9842 46.3599 42.9459 47.1452 42.7352C49.5013 42.1031 50.0951 40.1684 49.1182 36.3182C47.6049 30.3802 42.8545 25.8213 36.8973 24.5953C34.9051 24.1931 33.5643 24.2122 32.664 24.6911ZM38.1806 30.6866C39.6939 31.3954 40.8432 32.2957 41.9159 33.5982C42.6629 34.4985 43.5249 36.0884 43.7356 36.9887L43.8697 37.5058H40.1153H36.3609V33.7706C36.3609 30.859 36.4184 30.0354 36.6099 30.0354C36.744 30.0354 37.4528 30.3227 38.1806 30.6866ZM31.4189 40.858C31.8403 41.6433 32.4916 42.218 33.3344 42.5819C33.8899 42.7926 34.8094 42.8693 37.4144 42.8693H40.7666L40.3069 43.7695C39.6747 45.0338 38.219 46.3746 36.8398 47.0259C35.8054 47.5048 35.4798 47.5622 33.6792 47.5622C31.8978 47.5622 31.5338 47.5048 30.5761 47.0451C29.0437 46.3363 27.6645 44.9955 26.9175 43.4631C26.3428 42.2946 26.3045 42.0839 26.3045 40.1875C26.3045 38.4061 26.362 38.0422 26.8217 37.0844C27.4538 35.7244 28.6797 34.3644 29.944 33.6557L30.9017 33.1002L30.9975 36.7013C31.0741 39.5363 31.1507 40.3983 31.4189 40.858Z" fill="#B970AB"/>
<path d="M54.405 29.0967C53.5047 29.3649 52.3171 30.61 52.0681 31.5869C51.6658 33.081 52.183 34.4984 53.5239 35.5136L54.2326 36.0691L64.8828 36.1266C70.7442 36.1649 75.8203 36.1266 76.1651 36.0691C77.391 35.8393 78.866 34.0196 78.8851 32.717C78.8851 31.1463 77.7167 29.499 76.2992 29.0967C75.3415 28.8285 55.3244 28.8285 54.405 29.0967Z" fill="#B970AB"/>
<path d="M54.5582 42.6968C51.9914 43.463 51.1103 46.5278 52.8917 48.5582C53.9261 49.7267 54.1368 49.765 60.1132 49.765C66.0896 49.765 66.3003 49.7267 67.3346 48.5582C68.5223 47.1982 68.5797 45.3402 67.4879 43.9036C66.5301 42.6585 66.147 42.5819 60.4005 42.5436C57.3166 42.5244 54.9605 42.5819 54.5582 42.6968Z" fill="#B970AB"/>
</svg>
